<?xml version="1.0" encoding="utf-8"?>
<!-- Generator: Adobe Illustrator 28.3.0, SVG Export Plug-In . SVG Version: 6.00 Build 0)  -->
<svg version="1.1" id="Layer_1" xmlns="http://www.w3.org/2000/svg" xmlns:xlink="http://www.w3.org/1999/xlink" x="0px" y="0px"
	 viewBox="0 0 211 63.6" style="enable-background:new 0 0 211 63.6;" xml:space="preserve">
<style type="text/css">
	.st0{fill:#F9AF78;}
</style>
<g>
	<path class="st0" d="M9.7,30.1c2.2-0.5,4.3-0.9,6.5-1.4c0.9,5,1.7,9.5,2.2,13.3c0.2-1.3,0.4-2.6,0.5-3.9c0.2-1.5,0.5-3,0.7-4.5
		c0.3-1.9,0.6-3.8,1-5.8c2.2-0.4,4.4-0.8,6.6-1.2c0.9,8.5,1.8,17.1,2.8,25.8c-1.7,0.1-3.4,0.1-5.1,0.2c-0.5-5.8-1-11.6-1.5-17.4
		c-1,6-2.1,11.8-3.1,17.6c-1.2,0.1-2.3,0.1-3.5,0.2c-1.1-5.5-2.3-11-3.4-16.3c-0.4,5.5-0.9,11-1.3,16.5c-1.6,0.1-3.3,0.2-4.9,0.2
		C8.1,45.8,8.9,38,9.7,30.1z"/>
	<path class="st0" d="M31.7,25.9c1.9-0.3,3.9-0.6,5.8-0.9c1.3,3.7,2.3,6.6,2.9,8.7c0,0,0,0,0.1,0c0.6-2.3,1.5-5.4,2.7-9.5
		c2-0.3,4-0.5,5.9-0.8c-2,5.4-4,10.8-6,16c0,4.2,0.1,8.4,0.1,12.6c-1.7,0.1-3.5,0.1-5.2,0.2c0-4.1-0.1-8.2-0.1-12.3
		C35.8,35,33.7,30.3,31.7,25.9z"/>
	<path class="st0" d="M80.6,27.5c-0.4,4.3-1,8.6-1.7,13c1.2,0,2.4-0.1,3.5-0.1C81.6,35.9,81,31.5,80.6,27.5
		C80.6,27.5,80.6,27.5,80.6,27.5z"/>
	<path class="st0" d="M52.4,11.8c0.1,16.1,0.3,32.3,0.4,48.4c20.4,0,40.9,0,61.3,0c0-17.5,0.1-34.9,0.1-52.4
		C93.5,7.4,72.9,8.7,52.4,11.8z M70.9,27.6c-1.8,0.1-3.5,0.2-5.3,0.4c0,1.8,0,3.6,0,5.4c1.6-0.1,3.1-0.2,4.7-0.3c0,2.1,0,4.2,0,6.2
		c-1.6,0.1-3.1,0.1-4.7,0.2c0,3.9,0.1,7.8,0.1,11.8c-1.7,0-3.5,0.1-5.2,0.1c-0.1-9.8-0.1-19.6-0.2-29.4c3.5-0.4,7-0.7,10.5-0.9
		C70.9,23.3,70.9,25.4,70.9,27.6z M84.3,51c-0.3-1.7-0.6-3.4-0.9-5.1c-1.8,0-3.7,0.1-5.5,0.1c-0.3,1.7-0.6,3.4-0.9,5.1
		c-1.8,0-3.5,0.1-5.3,0.1c2-10.1,3.9-20.3,5.9-30.6c1.9-0.1,3.9-0.2,5.8-0.3c2.1,10.1,4.1,20.4,6.2,30.7C87.9,51,86.1,51,84.3,51z
		 M100.8,50.9c-1.6,0-3.2,0-4.8,0c-2.3-10.3-4.7-20.6-7.1-30.9c1.8-0.1,3.6-0.1,5.4-0.2c1,4.5,1.9,9.1,2.9,13.7c0.5,2.7,0.9,5,1.1,7
		c0,0,0,0,0.1,0c0.2-1.7,0.4-3.1,0.6-4.2c1-5.5,2.1-11.1,3.1-16.6c1.9,0,3.7,0,5.6,0C105.3,30.1,103.1,40.5,100.8,50.9z"/>
	<path class="st0" d="M120.8,20c2.2,0.1,4.4,0.2,6.6,0.3c0.9,6.7,1.6,12.4,2.1,17.2c0.2-1.6,0.4-3.2,0.6-4.7
		c0.2-1.8,0.5-3.6,0.8-5.4c0.3-2.3,0.7-4.6,1-6.8c2.2,0.1,4.5,0.3,6.7,0.4c0.8,10.1,1.6,20.2,2.4,30.3c-1.7,0-3.4-0.1-5.1-0.1
		c-0.4-7-0.9-14-1.3-21c-1.1,6.9-2.2,13.9-3.3,20.9c-1.2,0-2.3,0-3.5,0c-1.1-7.1-2.2-14.2-3.3-21.3c-0.5,7.1-0.9,14.2-1.4,21.2
		c-1.6,0-3.3,0-4.9,0C119.1,40.6,119.9,30.3,120.8,20z"/>
	<path class="st0" d="M152.6,52.2c-2.8-0.1-4.9-1.5-6.3-4.3c-1.4-2.8-2.1-6.8-2.1-12.1c0-4.8,0.8-8.5,2.3-11.1
		c1.5-2.6,3.5-3.7,6.1-3.4c2.8,0.3,4.9,1.9,6.3,4.6c1.4,2.8,2.1,6.5,2.1,11.3c0,4.8-0.8,8.5-2.3,11.1
		C157.3,50.9,155.2,52.2,152.6,52.2z M152.6,28c-1.9-0.2-2.8,2.6-2.9,8.3c0,3.7,0.2,6.1,0.7,7.3c0.5,1.2,1.1,1.9,2,1.9
		c1,0,1.7-0.5,2.2-1.7c0.5-1.2,0.8-3.5,0.8-7C155.5,31.1,154.6,28.2,152.6,28z"/>
	<path class="st0" d="M162.6,23.3c1.8,0.2,3.6,0.5,5.4,0.7c0.9,4.2,1.8,8.4,2.7,12.6c0.5,2.5,0.9,4.5,1,6.3c0,0,0,0,0.1,0
		c0.2-1.5,0.4-2.7,0.6-3.6c1.1-4.8,2.2-9.5,3.3-14.1c1.8,0.3,3.7,0.6,5.5,0.9c-2.3,8.4-4.7,17.1-7,26.1c-1.6-0.1-3.2-0.1-4.8-0.2
		C167.1,42.6,164.8,33.1,162.6,23.3z"/>
	<path class="st0" d="M184.1,26.5c1.7,0.3,3.4,0.6,5.1,0.9c0,8.4-0.1,16.8-0.1,25.2c-1.7-0.1-3.4-0.1-5.2-0.2
		C184,43.8,184,35.2,184.1,26.5z"/>
	<path class="st0" d="M194.3,28.4c3.5,0.7,6.9,1.4,10.3,2.2c0,1.6,0,3.2,0,4.9c-1.7-0.3-3.5-0.6-5.2-0.9c0,1.5,0,2.9,0,4.4
		c1.5,0.2,3,0.4,4.6,0.7c0,1.6,0,3.2,0,4.8c-1.5-0.2-3-0.4-4.6-0.5c0,1.4,0,2.9,0,4.3c1.8,0.1,3.5,0.3,5.3,0.5c0,1.6,0,3.2,0,4.9
		c-3.5-0.2-7-0.3-10.5-0.5C194.2,44.7,194.2,36.6,194.3,28.4z"/>
</g>
</svg>
